<svg width="19" height="7" viewBox="0 0 19 7" fill="none" xmlns="http://www.w3.org/2000/svg">
<path d="M5.77837 5.90683C5.17501 6.23624 4.53807 6.40635 3.86755 6.41717C2.93658 6.42316 2.1827 6.12526 1.6059 5.52349C1.06187 4.95406 0.787127 4.24617 0.781687 3.39984C0.777167 2.69673 0.974968 2.07044 1.37509 1.52098C1.93659 0.75564 2.75444 0.369515 3.82863 0.36261C4.53825 0.358049 5.16431 0.520043 5.7068 0.848594C5.706 0.724899 5.7119 0.630458 5.72451 0.565271C5.75635 0.454387 5.85364 0.398422 6.0164 0.397376L6.05781 2.28191L5.74532 2.28392C5.68539 2.07597 5.61907 1.88759 5.54637 1.71878C5.21621 0.998235 4.6833 0.640325 3.94764 0.645054C3.71978 0.646519 3.50842 0.683685 3.31358 0.756554C2.52133 1.07415 2.12979 1.94583 2.13896 3.37158C2.15727 5.20744 2.75239 6.12811 3.92432 6.1336C4.035 6.13289 4.14563 6.12567 4.25622 6.11193C5.02373 5.99632 5.54103 5.44611 5.80815 4.4613L6.10111 4.45942L6.11329 6.35391C6.04167 6.35437 5.98304 6.34823 5.93738 6.33551C5.8265 6.30367 5.7735 6.16078 5.77837 5.90683ZM9.30936 0.688715L8.58672 0.69336L8.60423 3.41791L9.24875 3.41377C9.28781 3.41352 9.32687 3.41327 9.36593 3.41302C10.0622 3.35646 10.4075 2.89524 10.402 2.02938C10.4014 1.93823 10.3976 1.85036 10.3905 1.76577C10.3078 1.04363 9.94737 0.684614 9.30936 0.688715ZM9.59923 6.28267L6.6403 6.30169L6.63861 6.03802L7.41984 6.033L7.38557 0.701081L6.60434 0.706103L6.60264 0.442437L9.74711 0.422224C10.1833 0.41942 10.5549 0.491903 10.8618 0.639672C11.4104 0.903078 11.6867 1.34402 11.6906 1.9625C11.6924 2.22942 11.6418 2.47389 11.5391 2.69591C11.2309 3.36197 10.5266 3.69853 9.42641 3.7056L8.60611 3.71088L8.62099 6.02528L9.33387 6.0207C9.47067 6.03284 9.55912 6.12016 9.59923 6.28267ZM14.8921 6.24865L12.1285 6.26641L12.1268 6.00275L12.908 5.99772L12.8737 0.665802L12.0925 0.670824L12.0908 0.407158L14.8544 0.389393L14.8561 0.653059L14.0749 0.658081L14.0905 3.08967L16.7369 3.07266L16.7213 0.64107L15.9401 0.646092L15.9384 0.382425L18.6922 0.364723L18.6939 0.628389L17.9225 0.633349L17.9567 5.96527L18.4743 5.96194C18.5916 5.97421 18.6768 6.06155 18.7299 6.22398L15.976 6.24168L15.9744 5.97801L16.7556 5.97299L16.7388 3.36562L14.0924 3.38263L14.1092 5.99L14.6267 5.98668C14.7635 5.99882 14.852 6.08614 14.8921 6.24865Z" fill="black"/>
</svg>
