<svg width="65" height="24" viewBox="0 0 65 24" fill="none" xmlns="http://www.w3.org/2000/svg">
<path d="M4.2711 23.9361C3.52712 23.9409 2.81774 23.7295 2.14298 23.3018C1.46837 22.8981 0.960293 22.2654 0.618746 21.4035C0.496743 21.0923 0.410585 20.7569 0.360272 20.3972C0.333958 20.0374 0.319722 19.6894 0.317562 19.3534L0.314553 18.8855C0.313474 18.7175 0.32447 18.5614 0.347544 18.4172C0.394618 18.2729 0.490153 18.2003 0.63415 18.1994C0.682149 18.1991 0.706303 18.2229 0.706611 18.2709C0.707537 18.4149 0.696463 18.559 0.673389 18.7031C0.674315 18.8471 0.67524 18.9911 0.676166 19.1351C0.683417 20.2631 0.964965 21.1253 1.52081 21.7218C2.1005 22.294 2.81034 22.5775 3.65032 22.5721C4.4903 22.5667 5.30474 22.3214 6.09364 21.8364C6.88239 21.3273 7.61036 20.6986 8.27756 19.9503C8.65893 19.5398 9.08699 18.9251 9.56173 18.106C10.0603 17.2628 10.5703 16.3235 11.0917 15.2881C11.6369 14.2286 12.1819 13.1451 12.7268 12.0375C13.2715 10.906 13.7926 9.82263 14.2899 8.78741C14.7871 7.72819 15.2372 6.80128 15.6401 6.00667C16.0193 5.26022 16.5315 4.66891 17.1767 4.23276C17.8219 3.7966 18.372 3.49306 18.8269 3.32213C18.6589 3.32321 18.299 3.33753 17.7472 3.36507C17.2193 3.39247 16.6555 3.42009 16.0556 3.44795C15.4558 3.47581 14.976 3.50289 14.6161 3.5292C13.7045 3.58306 12.7812 3.697 11.8463 3.87102C10.9114 4.04503 10.0849 4.27835 9.36673 4.57097C8.64859 4.86359 8.135 5.2389 7.82593 5.6969C7.61194 6.01028 7.50626 6.37096 7.50888 6.77896C7.51413 7.59494 7.8779 8.18061 8.6002 8.53598C8.64851 8.58367 8.67266 8.60751 8.67266 8.60751C8.67312 8.67951 8.61359 8.7519 8.49405 8.82467C8.37436 8.87344 8.25444 8.88621 8.13429 8.86298C7.94152 8.74422 7.70029 8.55376 7.4106 8.29162C7.14476 8.00532 6.89083 7.70695 6.64883 7.3965C6.43083 7.08589 6.28514 6.82282 6.21175 6.60729C6.08944 6.24807 6.02759 5.96046 6.0262 5.74447C6.0225 5.16848 6.23549 4.6991 6.66516 4.33633C7.09469 3.94956 7.65682 3.65794 8.35157 3.46147C9.04617 3.241 9.78923 3.09222 10.5808 3.01513C11.3721 2.91404 12.1397 2.84911 12.8835 2.82032C13.6274 2.79154 14.2633 2.77546 14.7913 2.77206C16.0153 2.76419 17.1072 2.75717 18.0672 2.751C19.051 2.72068 19.9509 2.70289 20.7669 2.69765C21.6069 2.69225 22.411 2.69908 23.1791 2.71814C23.9712 2.73705 24.7995 2.76773 25.6637 2.81017C26.2879 2.83016 26.7087 2.94746 26.926 3.16207C27.1674 3.37652 27.2891 3.63974 27.2911 3.95174C27.2937 4.35973 27.1646 4.80457 26.9037 5.28626C26.6428 5.76794 26.4056 6.21348 26.1923 6.62286C26.0975 6.81547 25.9424 6.96047 25.7271 7.05786C25.5115 7.13124 25.4271 7.05978 25.4737 6.84348C25.5203 6.62718 25.5668 6.39887 25.6133 6.15857C25.6596 5.89426 25.682 5.64212 25.6804 5.40212C25.6776 4.97013 25.5912 4.58668 25.421 4.25177C25.2507 3.89285 24.9611 3.64271 24.5522 3.50133C24.3116 3.40688 24.0232 3.34873 23.687 3.32689C23.3507 3.28105 22.9906 3.25937 22.6066 3.26183C21.8866 3.26646 21.1671 3.34309 20.448 3.49172C19.729 3.64034 19.1664 3.87196 18.7605 4.18658C18.2589 4.57381 17.747 5.20111 17.2245 6.06849C16.7261 6.93571 16.252 7.86278 15.8024 8.84969C15.3527 9.8366 14.9503 10.7032 14.5951 11.4495C14.5714 11.4977 14.5598 11.5697 14.5604 11.6657C14.5612 11.7857 14.6696 11.845 14.8856 11.8436C15.2216 11.8415 15.6896 11.8385 16.2896 11.8346C16.9135 11.8306 17.5616 11.8384 18.2338 11.8581C18.9057 11.8538 19.4817 11.8501 19.9617 11.847C20.4897 11.8436 20.9099 11.8769 21.2224 11.9469C21.5347 11.9929 21.6917 12.1479 21.6934 12.4119C21.694 12.5079 21.6352 12.7003 21.5171 12.989C21.3516 13.3741 21.1617 13.7113 20.9476 14.0007C20.7573 14.266 20.6031 14.5429 20.4849 14.8317C20.4615 14.9279 20.3541 15.0126 20.1625 15.0858C19.971 15.159 19.8989 15.1475 19.9463 15.0512C20.0409 14.8346 20.1352 14.57 20.2292 14.2573C20.3471 13.9206 20.4052 13.6322 20.4037 13.3922C20.4012 13.0082 20.232 12.8173 19.896 12.8195L14.2801 12.8556C14.0641 12.8569 13.8967 12.954 13.7779 13.1468C13.0909 14.5432 12.3445 16.0361 11.5387 17.6253C10.7569 19.2143 9.84162 20.5762 8.79289 21.711C8.19707 22.3629 7.50448 22.8953 6.71512 23.3084C5.92576 23.7215 5.11108 23.9307 4.2711 23.9361ZM21.5823 22.9608C21.4863 22.9614 21.4857 22.8654 21.5805 22.6728C21.6991 22.4561 21.8055 22.2154 21.8998 21.9508C22.0181 21.686 22.1363 21.3972 22.2543 21.0845C22.4906 20.5069 22.7504 19.8573 23.0338 19.1354C23.3171 18.4136 23.5886 17.7158 23.8483 17.0421C24.1078 16.3445 24.3321 15.755 24.521 15.2738C24.7337 14.7684 24.8756 14.4435 24.9467 14.299C24.613 14.6612 24.208 15.1198 23.7315 15.6749C23.2789 16.2058 22.8503 16.7245 22.4455 17.2312C22.0408 17.7378 21.7313 18.1358 21.5172 18.4252C21.4458 18.5216 21.3861 18.57 21.3381 18.5703C21.2901 18.5706 21.2657 18.5108 21.2649 18.3908C21.2637 18.1988 21.3225 18.0184 21.4415 17.8496C21.8937 17.2707 22.3936 16.6195 22.9409 15.8959C23.5123 15.1723 24.024 14.509 24.4762 13.906C24.9282 13.2791 25.2135 12.8693 25.3323 12.6765C25.596 12.6268 25.9795 12.5523 26.4829 12.4531C27.0102 12.3537 27.3694 12.2194 27.5603 12.0502C27.6318 11.9777 27.7036 11.9413 27.7756 11.9408C27.8236 11.9405 27.8479 11.9883 27.8485 12.0843C27.873 12.1562 27.8495 12.2403 27.7782 12.3368C27.6351 12.4817 27.4211 12.7951 27.1362 13.2769C26.8753 13.7586 26.5788 14.3125 26.2468 14.9387C25.9149 15.5648 25.5947 16.1669 25.2864 16.7449C25.5241 16.3834 25.8334 15.9614 26.2143 15.4789C26.6191 14.9723 27.06 14.4894 27.537 14.0304C28.0139 13.5473 28.4914 13.1482 28.9694 12.8331C29.4714 12.5179 29.9383 12.3589 30.3703 12.3561C30.6823 12.3541 30.9468 12.4244 31.1637 12.567C31.3805 12.6856 31.5499 12.9125 31.6721 13.2478C31.7452 13.4153 31.7824 13.6071 31.7838 13.8231C31.7864 14.2311 31.681 14.6277 31.4674 15.0131C31.2778 15.3743 31.1355 15.6513 31.0408 15.8439C31.0172 15.916 30.9337 15.9886 30.7902 16.0615C30.6465 16.1104 30.5863 16.0868 30.6097 15.9907C30.6329 15.8705 30.6442 15.7504 30.6434 15.6304C30.6666 15.5103 30.6778 15.3782 30.6768 15.2342C30.6742 14.8262 30.5878 14.4548 30.4177 14.1199C30.2715 13.7848 29.9944 13.6186 29.5864 13.6212C29.2025 13.6237 28.736 13.8667 28.1871 14.3502C27.6382 14.8337 27.0898 15.3893 26.5418 16.0168C25.851 16.8373 25.3041 17.6208 24.9009 18.3674C24.4975 19.09 24.1661 19.8002 23.9065 20.4978C23.765 20.8828 23.6235 21.2677 23.4819 21.6526C23.3403 22.0135 23.2341 22.3022 23.1635 22.5187C22.8517 22.5447 22.5401 22.6187 22.2289 22.7407C21.9178 22.8867 21.7023 22.9601 21.5823 22.9608ZM33.2253 22.67C32.2413 22.6763 31.5561 22.4887 31.1696 22.1072C30.7832 21.7257 30.5882 21.2589 30.5846 20.7069C30.5801 20.0109 30.7553 19.2658 31.1102 18.4715C31.4891 17.677 31.8448 17.0027 32.1773 16.4486C32.5576 15.8701 33.0697 15.2668 33.7137 14.6387C34.3576 14.0105 35.0622 13.478 35.8274 13.0411C36.5926 12.6041 37.3352 12.3833 38.0552 12.3787C38.6792 12.3747 39.1122 12.5279 39.3542 12.8384C39.5961 13.1248 39.7183 13.4721 39.7209 13.88C39.7257 14.624 39.5016 15.2375 39.0487 15.7204C38.6198 16.2032 38.0824 16.6026 37.4364 16.9188C36.7903 17.211 36.1678 17.455 35.5691 17.6508C35.2097 17.7491 34.7903 17.8478 34.3109 17.9469C33.8316 18.046 33.3759 18.0969 32.9439 18.0997C32.7787 18.5328 32.6494 18.9536 32.556 19.3622C32.4626 19.7708 32.417 20.1431 32.4192 20.4791C32.4218 20.8871 32.52 21.2225 32.7137 21.4852C32.9313 21.7479 33.2802 21.8776 33.7602 21.8745C33.9522 21.8733 34.18 21.8478 34.4437 21.7981C34.7074 21.7484 34.9949 21.6746 35.3063 21.5766C36.0247 21.332 36.7303 20.9434 37.4228 20.411C38.1154 19.8785 38.7478 19.3104 39.3199 18.7067C39.9159 18.0789 40.3686 17.56 40.678 17.15C40.7504 17.2215 40.787 17.3053 40.7876 17.4013C40.7883 17.5213 40.7056 17.7138 40.5393 17.9789C40.0636 18.6539 39.4441 19.3539 38.6807 20.0789C37.9174 20.8038 37.0693 21.4212 36.1366 21.9313C35.2037 22.4173 34.2333 22.6635 33.2253 22.67ZM33.2273 17.3779C33.5394 17.3999 33.8874 17.3976 34.2712 17.3711C34.6789 17.3205 35.0744 17.234 35.4576 17.1115C36.4397 16.8172 37.1448 16.3567 37.5728 15.7299C38.0246 15.079 38.2489 14.5015 38.2456 13.9975C38.2438 13.7095 38.1822 13.4699 38.061 13.2787C37.9398 13.0875 37.7472 12.9927 37.4832 12.9944C36.7872 12.9989 36.1649 13.2669 35.6163 13.7984C35.0676 14.306 34.5913 14.897 34.1877 15.5716C33.784 16.2463 33.4639 16.8483 33.2273 17.3779ZM45.0327 22.4141C44.7927 22.4156 44.5884 22.3689 44.4198 22.274C44.2512 22.1791 44.166 21.9996 44.1643 21.7356C44.1622 21.3997 44.2437 21.0151 44.4089 20.582C44.5742 20.149 44.7635 19.7278 44.9768 19.3184C45.19 18.885 45.3798 18.5358 45.5461 18.2707C44.7118 19.1641 43.8412 20.0097 42.9344 20.8075C42.4808 21.1945 41.9792 21.5577 41.4293 21.8972C40.8795 22.2368 40.2926 22.4085 39.6686 22.4126C39.4286 22.4141 39.2601 22.3432 39.1632 22.1998C39.0661 22.0324 39.0169 21.8407 39.0155 21.6247C39.0148 21.5047 39.0262 21.4207 39.0499 21.3725C39.1639 20.4358 39.4576 19.4619 39.9311 18.4508C40.4047 17.4397 40.9865 16.488 41.6768 15.5955C42.3671 14.7031 43.0705 13.9785 43.7869 13.4219C44.3363 13.0104 44.8626 12.755 45.366 12.6557C45.8692 12.5325 46.4208 12.4689 47.0208 12.4651L48.2088 12.4575C48.5886 11.807 48.98 11.0845 49.3829 10.2899C49.8096 9.4711 50.2244 8.66442 50.6273 7.86981C51.0542 7.07505 51.4458 6.37652 51.8019 5.77422C52.7751 4.08793 53.8464 2.73701 55.0159 1.72147C56.2094 0.705782 57.5381 0.193231 59.0021 0.18382C59.3141 0.181814 59.6027 0.275961 59.868 0.466261C60.133 0.632561 60.2547 0.895784 60.233 1.25593L60.1694 2.55237C60.1695 2.57637 60.1458 2.61252 60.0981 2.66083C60.0502 2.68513 60.0143 2.69737 59.9903 2.69752C59.9663 2.69767 59.9301 2.67391 59.8818 2.62622C59.8071 2.19469 59.589 1.87208 59.2276 1.6584C58.8661 1.42072 58.4213 1.30358 57.8933 1.30697C57.7253 1.30805 57.5334 1.32128 57.3176 1.34667C57.1257 1.37191 56.934 1.42114 56.7425 1.49437C56.0721 1.73869 55.4392 2.23477 54.844 2.98261C54.2487 3.70645 53.6068 4.6706 52.9186 5.87504C52.6815 6.33258 52.3734 6.93457 51.9942 7.68102C51.6148 8.40348 51.2118 9.18608 50.7852 10.0288C50.3826 10.8714 49.9919 11.69 49.613 12.4844C49.2581 13.2787 48.9504 13.9527 48.69 14.5064C48.5718 14.7952 48.3707 15.2405 48.0865 15.8423C47.8023 16.4202 47.4943 17.0581 47.1628 17.7563C46.8552 18.4303 46.5832 19.056 46.3469 19.6336C46.1346 20.2109 46.0292 20.6196 46.0308 20.8596C46.0329 21.1956 46.178 21.3627 46.466 21.3608C46.754 21.359 47.1369 21.1885 47.6147 20.8494C48.0924 20.4864 48.5816 20.0512 49.0824 19.544C49.607 19.0126 50.0717 18.5056 50.4766 18.023C50.9055 17.5402 51.2032 17.1783 51.3696 16.9372C51.4421 17.0088 51.4787 17.0925 51.4793 17.1885C51.4803 17.3565 51.4094 17.525 51.2665 17.6939C51.1476 17.8627 51.0405 18.0074 50.9453 18.128C50.517 18.7067 49.981 19.3342 49.3374 20.0104C48.7175 20.6624 48.0372 21.2307 47.2963 21.7155C46.5552 22.1763 45.8007 22.4091 45.0327 22.4141ZM41.1367 21.1791C41.4247 21.1772 41.8194 20.9707 42.3207 20.5595C42.846 20.1241 43.4066 19.5925 44.0025 18.9646C44.5984 18.3128 45.158 17.6372 45.6815 16.9378C46.2049 16.2144 46.6327 15.5637 46.965 14.9855C47.3211 14.3832 47.4982 13.9261 47.4962 13.6141C47.4945 13.3501 47.4094 13.1706 47.2407 13.0757C47.0961 12.9806 46.9038 12.9339 46.6638 12.9354C46.2798 12.9379 45.8608 13.0846 45.4066 13.3755C44.9763 13.6423 44.63 13.9085 44.3677 14.1742C44.0814 14.44 43.7362 14.8623 43.3319 15.4409C42.9514 15.9953 42.5714 16.6098 42.1917 17.2842C41.812 17.9587 41.4922 18.6088 41.2322 19.2344C40.9722 19.8601 40.8435 20.365 40.8459 20.749C40.8478 21.0369 40.9447 21.1803 41.1367 21.1791ZM56.0478 5.74693C55.9045 5.84385 55.7729 5.9167 55.6532 5.96547C55.5576 6.01408 55.5097 6.03839 55.5097 6.03839L55.5799 5.74993C55.6034 5.67778 55.615 5.61771 55.6147 5.56971C55.6384 5.52155 55.7219 5.44901 55.8653 5.35209C56.2711 5.01348 56.6166 4.61525 56.9016 4.1574C57.2107 3.69941 57.4116 3.21811 57.5044 2.7135C57.5504 2.4012 57.4886 2.12559 57.3191 1.88668C57.1495 1.64776 56.9086 1.5053 56.5963 1.45931L56.7377 1.0624C56.8574 1.01362 57.025 0.940545 57.2403 0.843159C57.4556 0.721773 57.611 0.624772 57.7065 0.552156C57.802 0.479541 57.8975 0.394926 57.9929 0.298311C58.0881 0.177696 58.1718 0.129157 58.2439 0.152693C58.7484 0.221453 59.0024 0.531827 59.0059 1.08382C59.0066 1.17981 58.9952 1.27589 58.9718 1.37204C58.9722 1.44404 58.9609 1.54011 58.9376 1.66027C58.7512 2.52548 58.3842 3.30786 57.8367 4.00739C57.313 4.68277 56.7167 5.26262 56.0478 5.74693ZM58.9284 22.7928C58.4964 22.7955 58.04 22.7385 57.5592 22.6216C57.0785 22.5046 56.6452 22.3154 56.2595 22.0539C55.8977 21.7682 55.6552 21.3858 55.5322 20.9066C55.5077 20.8347 55.495 20.7268 55.4941 20.5828C55.4919 20.2468 55.5615 19.8743 55.7029 19.4654C55.8683 19.0564 56.0704 18.7671 56.3093 18.5975C56.405 18.5489 56.477 18.5484 56.5253 18.5961C56.5976 18.6437 56.6099 18.6916 56.5623 18.7399C56.5387 18.812 56.5033 18.9083 56.4561 19.0286C56.4087 19.1249 56.3734 19.2331 56.3502 19.3533C56.2822 19.9777 56.4177 20.5289 56.7568 21.0067C56.9021 21.1978 57.0712 21.3767 57.2643 21.5434C57.4814 21.71 57.6863 21.8527 57.8791 21.9715C58.0477 22.0664 58.2521 22.1371 58.4924 22.1836C58.7326 22.206 58.9726 22.2165 59.2126 22.2149C59.5966 22.2125 59.9683 22.1621 60.3277 22.0638C60.6871 21.9654 60.9501 21.8077 61.1167 21.5907C61.4262 21.2047 61.5794 20.7717 61.5763 20.2917C61.574 19.9317 61.4755 19.5483 61.2809 19.1416C61.0863 18.7348 60.7835 18.3047 60.3726 17.8514C60.1068 17.5651 59.8528 17.2547 59.6106 16.9203C59.3685 16.5858 59.2102 16.2268 59.1357 15.8433C59.1112 15.7714 59.0868 15.6996 59.0623 15.6278C59.0618 15.5558 59.0614 15.4838 59.0609 15.4118C58.7518 15.8698 58.4306 16.3038 58.0973 16.714C57.7877 17.1 57.5139 17.4377 57.2758 17.7273C57.1807 17.8719 57.0971 17.9444 57.0252 17.9449C56.9772 17.9452 56.9528 17.8974 56.9522 17.8014C56.9508 17.5854 57.0454 17.3568 57.2358 17.1155C57.4264 16.8983 57.6407 16.6329 57.8787 16.3194C58.1166 15.9818 58.3069 15.7166 58.4496 15.5237C58.8538 14.9211 59.1507 14.4512 59.3406 14.1139C59.5543 13.7526 59.7802 13.4271 60.0183 13.1376C60.2803 12.8239 60.6027 12.5698 60.9854 12.3753C61.3922 12.1807 61.8116 12.082 62.2436 12.0792C62.7475 12.076 63.2041 12.1571 63.6131 12.3224C64.0461 12.4637 64.2765 12.8462 64.3045 13.47C64.3064 13.758 64.2483 14.0584 64.1303 14.3712C64.0362 14.6598 63.93 14.9365 63.8117 15.2012C63.7406 15.3457 63.6333 15.4544 63.4897 15.5273C63.3701 15.5761 63.3099 15.5524 63.3093 15.4565C63.3087 15.3605 63.32 15.2524 63.3432 15.1322C63.3664 15.0121 63.3777 14.904 63.3771 14.808C63.3745 14.4 63.3002 14.0405 63.1542 13.7294C63.032 13.3942 62.8505 13.1554 62.6096 13.0129C62.3685 12.8464 62.116 12.7641 61.852 12.7658C61.468 12.7682 61.097 12.9266 60.739 13.2409C60.3808 13.5312 60.2033 13.9164 60.2064 14.3964C60.2067 14.4444 60.2071 14.5044 60.2076 14.5764C60.208 14.6484 60.2204 14.7083 60.2447 14.7561C60.3432 15.1395 60.634 15.5697 61.117 16.0466C61.6001 16.5235 61.9748 16.9411 62.2411 17.2994C62.7011 17.9204 62.9332 18.5549 62.9374 19.2029C62.9415 19.8509 62.7534 20.4521 62.3729 21.0066C62.0163 21.5369 61.5271 21.96 60.9051 22.276C60.3072 22.6159 59.6483 22.7881 58.9284 22.7928Z" fill="black"/>
</svg>
