<svg width="92" height="94" viewBox="0 0 92 94" fill="none" xmlns="http://www.w3.org/2000/svg">
<path d="M5.42523 21.871L7.81217 22.3042C9.19333 20.6495 11.2219 18.3109 13.8247 15.6266C16.6511 12.7112 18.1081 11.2209 20.2714 9.63797C23.7308 7.10629 26.8266 5.8548 28.7519 5.09269C30.6928 4.32405 34.8546 2.27782 40.4695 2.27782C42.4222 2.27782 47.3046 1.95288 50.1258 2.38614C52.947 2.81939 56.6353 3.25265 59.7821 4.4428C62.929 5.63295 67.4858 7.4743 69.7642 9.20602C72.0425 10.9377 74.6466 12.0209 77.0335 15.0511C79.4205 18.0826 81.6989 19.8143 83.0002 22.3042C84.3016 24.7941 87.6656 32.2639 87.6656 32.2639C87.6656 32.2639 88.6426 34.4289 89.2926 38.0006C89.944 41.5724 90.2696 47.6354 89.944 49.9087C89.6183 52.182 89.6183 54.022 88.9669 56.9452C88.3156 59.8684 86.6886 64.9552 85.2786 67.4452C83.8687 69.9351 79.2034 76.43 77.2506 78.3784C75.2979 80.3267 70.8497 84.2234 68.2457 85.6315C65.6416 87.0396 60.0006 89.6365 57.7222 90.2864C55.4438 90.9363 48.1744 92.1265 46.4388 92.0181C44.7032 91.9098 36.6739 91.5849 35.0469 91.1516C33.4198 90.7184 25.3905 87.7965 23.3293 86.3884C21.268 84.9816 16.0599 81.9501 14.5414 80.2184C13.0229 78.4867 6.94633 71.1252 6.94633 71.1252L2.17245 61.9237H0L3.4712 69.5018C3.4712 69.5018 8.78788 76.9716 9.87214 78.0534C10.9577 79.1366 15.5132 84.1151 17.7916 85.7398C20.0699 87.3632 27.5564 90.9363 27.5564 90.9363L37.1042 93.5345C40.9364 93.99 44.1761 94.0409 46.5866 93.9782C49.5673 93.9013 52.2015 93.8203 55.5811 93.0334C58.2205 92.4201 60.045 91.6723 62.5994 90.6114C67.5459 88.5573 70.1565 87.4076 73.1229 85.3066C76.4855 82.925 82.2364 75.8885 82.2364 75.8885C82.2364 75.8885 85.5991 71.3419 86.9017 68.527C88.2031 65.7121 90.0486 61.3822 90.8072 58.1354C91.5671 54.8872 92 46.2273 92 44.279C92 42.3306 91.3487 36.7009 90.5901 34.1039C89.8302 31.5057 87.4432 25.8773 85.8162 22.9541C84.1891 20.0309 77.8968 12.7791 76.0513 11.371C74.2071 9.96422 68.8905 6.06621 66.1778 4.87606C64.4527 4.11916 63.4299 3.4484 61.8526 2.81156C60.8507 2.40571 59.7939 2.09643 58.3657 1.73755C53.1249 0.419514 48.5942 0.114146 48.5942 0.114146C42.7871 -0.276046 38.1623 0.423429 35.7989 0.871041C32.9267 1.41522 28.6956 1.932 24.0813 4.65943C21.1516 6.39115 16.1619 10.0725 16.1619 10.0725L10.5209 15.269L6.83254 19.8156L5.42261 21.8723L5.42523 21.871Z" fill="black"/>
</svg>
