<svg width="122" height="124" viewBox="0 0 122 124" fill="none" xmlns="http://www.w3.org/2000/svg">
<path d="M7.19432 28.851L10.3596 29.4226C12.1912 27.2397 14.8812 24.1549 18.3327 20.6138C22.0807 16.768 24.0129 14.8021 26.8816 12.7139C31.4691 9.37425 35.5744 7.72336 38.1275 6.71801C40.7014 5.70406 46.2202 3.00479 53.666 3.00479C56.2555 3.00479 62.7301 2.57614 66.4712 3.14767C70.2123 3.7192 75.1033 4.29073 79.2763 5.86072C83.4493 7.4307 89.492 9.85971 92.5133 12.1441C95.5347 14.4285 98.9879 15.8573 102.153 19.8546C105.318 23.8536 108.34 26.138 110.066 29.4226C111.791 32.7072 116.252 42.5609 116.252 42.5609C116.252 42.5609 117.548 45.4168 118.41 50.1285C119.274 54.8402 119.705 62.8382 119.274 65.837C118.842 68.8358 118.842 71.2631 117.978 75.1192C117.114 78.9753 114.957 85.6856 113.087 88.9702C111.217 92.2548 105.031 100.823 102.441 103.393C99.8516 105.963 93.9529 111.103 90.4997 112.961C87.0465 114.818 79.566 118.244 76.5446 119.101C73.5233 119.959 63.8834 121.529 61.5819 121.386C59.2803 121.243 48.6328 120.814 46.4752 120.243C44.3176 119.671 33.6701 115.817 30.9366 113.959C28.2032 112.103 21.2968 108.104 19.2831 105.82C17.2695 103.536 9.21144 93.8248 9.21144 93.8248L2.88085 81.6866H0L4.60312 91.6833C4.60312 91.6833 11.6535 101.537 13.0913 102.964C14.5309 104.393 20.5718 110.96 23.5932 113.104C26.6145 115.245 36.5422 119.959 36.5422 119.959L49.2034 123.386C54.2852 123.987 58.5814 124.054 61.7779 123.971C65.7306 123.87 69.2237 123.763 73.7054 122.725C77.2054 121.916 79.6249 120.929 83.0122 119.53C89.5718 116.82 93.0336 115.304 96.9673 112.532C101.426 109.39 109.053 100.108 109.053 100.108C109.053 100.108 113.512 94.1105 115.239 90.3973C116.965 86.6841 119.412 80.9722 120.418 76.6892C121.426 72.4044 122 60.9807 122 58.4105C122 55.8404 121.136 48.4139 120.13 44.9882C119.123 41.5607 115.957 34.136 113.8 30.2799C111.642 26.4238 103.298 16.8575 100.851 15C98.4051 13.1443 91.3547 8.00223 87.7576 6.43225C85.4699 5.43379 84.1136 4.54895 82.0219 3.70887C80.6933 3.17349 79.2919 2.7655 77.398 2.29209C70.4482 0.553401 64.4402 0.150576 64.4402 0.150576C56.7394 -0.364146 50.6066 0.558566 47.4725 1.14903C43.6637 1.86689 38.0529 2.54859 31.9339 6.14648C28.0488 8.43088 21.4321 13.2872 21.4321 13.2872L13.9516 20.1421L9.06055 26.1397L7.19086 28.8528L7.19432 28.851Z" fill="black"/>
</svg>
